<svg width="234" height="230" viewBox="0 0 234 230" fill="none" xmlns="http://www.w3.org/2000/svg">
<path d="M204.796 143.482C200.77 136.468 196.121 129.269 190.918 122.012C196.121 114.743 200.77 107.555 204.796 100.541C216.344 80.3275 222.942 61.672 223 46.2352C223 41.5742 222.377 37.19 220.993 33.175C219.608 29.1601 217.44 25.5259 214.452 22.5493C211.475 19.5727 207.842 17.3919 203.827 16.0075C199.813 14.623 195.429 14 190.768 14C175.345 14.0461 156.68 20.657 136.469 32.2058C129.455 36.2323 122.256 40.8818 115 46.0851C107.732 40.8818 100.545 36.2323 93.5315 32.2058C73.3204 20.657 54.6668 14.0577 39.2316 14C34.5711 14 30.1873 14.623 26.1728 16.0075C22.1583 17.3919 18.5245 19.5611 15.5482 22.5493C12.5719 25.5143 10.3917 29.16 9.00739 33.1635C7.62307 37.1784 7 41.5626 7 46.2237C7.04614 61.649 13.6563 80.316 25.2038 100.529C29.2299 107.544 33.8789 114.743 39.0817 122C33.8789 129.269 29.2299 136.456 25.2038 143.471C13.6563 163.684 7.05768 182.351 7 197.777C7 202.438 7.62307 206.822 9.00739 210.837C10.3917 214.852 12.5604 218.486 15.5482 221.463C18.5245 224.439 22.1583 226.62 26.1728 227.993C30.1873 229.377 34.5711 230 39.2316 230C54.6552 229.954 73.3204 223.343 93.5315 211.794C100.545 207.768 107.744 203.118 115 197.915C122.256 203.118 129.455 207.768 136.469 211.794C156.68 223.343 175.333 229.942 190.768 230C195.429 230 199.813 229.377 203.827 227.993C207.842 226.608 211.475 224.439 214.452 221.463C217.428 218.486 219.608 214.852 220.981 210.837C222.366 206.822 222.988 202.438 222.988 197.777C222.942 182.351 216.332 163.684 204.785 143.471L204.796 143.482ZM141.59 41.124C160.809 30.0598 178.367 24.2337 190.768 24.2799C194.506 24.2799 197.759 24.7875 200.47 25.722C203.193 26.6681 205.373 28.018 207.184 29.8062C208.984 31.606 210.333 33.7979 211.268 36.5207C212.202 39.2319 212.71 42.4856 212.71 46.2237C212.756 58.6377 206.93 76.1973 195.867 95.4068C192.522 101.245 188.703 107.232 184.458 113.324C176.106 102.514 166.566 91.6457 155.953 81.0314C145.34 70.4287 134.473 60.8759 123.663 52.523C129.743 48.2773 135.742 44.4583 141.579 41.1125L141.59 41.124ZM178.159 122C169.669 133.226 159.783 144.602 148.697 155.689C137.611 166.776 126.224 176.664 115.011 185.155C103.787 176.664 92.4125 166.776 81.3264 155.689C70.2404 144.602 60.354 133.214 51.8635 122C60.354 110.786 70.2404 99.3988 81.3264 88.3115C92.4125 77.2242 103.798 67.3368 115.011 58.8453C126.224 67.3368 137.611 77.2242 148.697 88.3115C159.783 99.3988 169.669 110.786 178.159 122ZM34.1327 95.4068C23.0697 76.1857 17.244 58.6262 17.2902 46.2237C17.2902 42.4856 17.7977 39.2319 18.7322 36.5207C19.6781 33.7979 21.0279 31.6176 22.8159 29.8178C24.6271 28.018 26.8073 26.6681 29.5298 25.722C32.2408 24.7875 35.494 24.2799 39.2316 24.2799C51.6444 24.2337 69.2021 30.0598 88.4096 41.124C94.2468 44.4698 100.246 48.2888 106.325 52.5345C95.5158 60.8875 84.6489 70.4287 74.0358 81.043C63.4342 91.6572 53.8823 102.525 45.5302 113.336C41.285 107.256 37.4666 101.256 34.1211 95.4183L34.1327 95.4068ZM88.4211 202.876C69.2021 213.94 51.6444 219.767 39.2432 219.72C35.5055 219.72 32.2523 219.213 29.5414 218.278C26.8189 217.332 24.6386 215.982 22.8275 214.194C21.0279 212.394 19.6781 210.202 18.7437 207.48C17.8093 204.768 17.2902 201.515 17.3017 197.777C17.2556 185.363 23.0812 167.803 34.1442 148.594C37.4897 142.756 41.3081 136.756 45.5533 130.676C53.9054 141.487 63.4456 152.355 74.0587 162.969C84.6718 173.572 95.5387 183.124 106.348 191.477C100.268 195.723 94.2699 199.542 88.4327 202.888L88.4211 202.876ZM211.268 207.468C210.322 210.191 208.984 212.371 207.184 214.182C205.384 215.982 203.193 217.321 200.47 218.267C197.759 219.213 194.506 219.709 190.768 219.709C178.356 219.755 160.798 213.929 141.59 202.865C135.753 199.519 129.766 195.7 123.687 191.454C134.496 183.101 145.363 173.56 155.976 162.946C166.577 152.332 176.129 141.463 184.481 130.653C188.727 136.733 192.545 142.733 195.89 148.57C206.953 167.791 212.779 185.351 212.733 197.753C212.733 201.492 212.225 204.745 211.291 207.456L211.268 207.468Z" fill="#EFFDFF"/>
<g clip-path="url(#clip0_820_2835)">
<path d="M112.415 119.91L113.675 124H111.127L112.415 119.91ZM136.295 135.218C135.141 137.076 132.769 137.968 129.629 137.968C128.761 137.968 127.815 137.874 126.837 137.74C127.031 137.128 127.213 136.502 127.381 135.854C131.019 136.32 133.629 135.72 134.595 134.164C136.371 131.302 132.827 124.916 124.895 118.67C124.959 119.762 125.017 120.86 125.017 122.002C125.017 135.46 120.625 146.002 115.017 146.002C112.575 146.002 110.363 143.998 108.643 140.628C109.281 140.444 109.933 140.222 110.585 140.002C111.935 142.548 113.509 144.002 115.017 144.002C118.013 144.002 121.273 138.322 122.503 129.524C121.861 129.972 121.201 130.414 120.509 130.846C114.951 134.3 109.181 136.702 104.265 137.612C102.857 137.872 101.557 138 100.379 138C97.1852 138 94.8832 137.054 93.7432 135.224C93.7432 135.224 93.7412 135.224 93.7392 135.22C92.2032 132.746 93.1592 129.094 95.9852 125.134C96.4352 125.608 96.9032 126.08 97.3932 126.55C95.1492 129.774 94.4292 132.54 95.4372 134.164C96.5172 135.898 99.5952 136.44 103.899 135.644C106.635 135.138 109.663 134.126 112.775 132.716C111.695 132.134 110.611 131.52 109.521 130.844C97.6012 123.434 90.6672 113.748 93.7392 108.788C93.7392 108.788 93.7392 108.784 93.7412 108.782C95.2112 106.412 98.6752 105.63 103.179 106.25C102.987 106.864 102.809 107.494 102.641 108.146C99.0112 107.682 96.4072 108.282 95.4412 109.836C93.6632 112.7 97.2132 119.096 105.159 125.348C105.097 124.244 104.999 123.152 104.999 122C104.999 108.544 109.411 98.002 115.017 98C117.457 98 119.667 100 121.385 103.364C120.745 103.55 120.097 103.756 119.439 103.982C118.091 101.448 116.521 100.002 115.017 100.002C112.019 100.002 108.757 105.688 107.529 114.494C108.189 114.048 108.827 113.592 109.523 113.16C121.449 105.75 133.211 103.826 136.295 108.784C137.833 111.258 136.873 114.912 134.047 118.872C133.597 118.398 133.131 117.926 132.641 117.454C134.885 114.228 135.605 111.464 134.597 109.84C132.873 107.066 125.955 107.302 117.219 111.286C118.311 111.866 119.407 112.472 120.513 113.16C132.445 120.572 139.377 130.262 136.297 135.22L136.295 135.218ZM116.999 128L113.305 116H111.549L107.773 128H109.871L110.501 126H114.293L114.909 128H117.001H116.999ZM120.999 116H118.999V128H120.999V116Z" fill="#1AA9B9"/>
</g>
<path d="M29.3333 204C27.495 204 26 205.495 26 207.333C26 209.172 27.495 210.667 29.3333 210.667C31.1717 210.667 32.6667 209.172 32.6667 207.333C32.6667 205.495 31.1717 204 29.3333 204ZM29.3333 209C28.415 209 27.6667 208.253 27.6667 207.333C27.6667 206.413 28.415 205.667 29.3333 205.667C30.2517 205.667 31 206.413 31 207.333C31 208.253 30.2517 209 29.3333 209ZM38.51 209.797L37.4333 209.168C37.59 208.525 37.6667 207.922 37.6667 207.333C37.6667 206.745 37.59 206.142 37.4333 205.498L38.51 204.87C39.0867 204.533 39.4983 203.993 39.6683 203.347C39.8383 202.7 39.745 202.027 39.4083 201.45C38.7133 200.26 37.18 199.855 35.9883 200.552L34.9217 201.175C34.0267 200.362 32.9767 199.757 31.8333 199.395V198.165C31.8333 196.787 30.7117 195.665 29.3333 195.665C27.955 195.665 26.8333 196.787 26.8333 198.165V199.395C25.6883 199.757 24.64 200.362 23.745 201.175L22.6767 200.552C21.4833 199.857 19.9517 200.26 19.2583 201.45C18.9217 202.027 18.83 202.7 18.9983 203.347C19.1683 203.993 19.58 204.533 20.1567 204.87L21.2333 205.498C21.0767 206.142 21 206.745 21 207.333C21 207.922 21.0767 208.525 21.2333 209.168L20.1567 209.797C19.58 210.133 19.1683 210.673 18.9983 211.32C18.8283 211.967 18.9217 212.64 19.2583 213.217C19.9517 214.408 21.485 214.812 22.6783 214.115L23.745 213.492C24.64 214.305 25.69 214.912 26.8333 215.27V216.5C26.8333 217.878 27.955 219 29.3333 219C30.7117 219 31.8333 217.878 31.8333 216.5V215.27C32.9767 214.91 34.0267 214.305 34.9217 213.492L35.99 214.115C37.1817 214.812 38.715 214.407 39.4083 213.217C39.745 212.64 39.8367 211.967 39.6683 211.32C39.4983 210.673 39.0867 210.133 38.51 209.797ZM37.97 212.377C37.7367 212.772 37.225 212.905 36.83 212.677L35.2117 211.732C34.8767 211.537 34.4483 211.598 34.1833 211.882C33.2667 212.858 32.1017 213.53 30.815 213.823C30.435 213.91 30.1667 214.247 30.1667 214.635V216.502C30.1667 216.96 29.7933 217.335 29.3333 217.335C28.8733 217.335 28.5 216.96 28.5 216.502V214.635C28.5 214.247 28.23 213.908 27.8517 213.823C26.565 213.53 25.4 212.858 24.4833 211.882C24.3217 211.708 24.1 211.618 23.875 211.618C23.7317 211.618 23.585 211.655 23.455 211.732L21.8383 212.677C21.4417 212.907 20.93 212.775 20.6983 212.377C20.465 211.993 20.6067 211.453 20.9983 211.235L22.63 210.283C22.9667 210.088 23.1217 209.687 23.005 209.315C22.775 208.582 22.6683 207.952 22.6683 207.335C22.6683 206.718 22.775 206.088 23.005 205.355C23.1217 204.983 22.9667 204.582 22.63 204.387L20.9983 203.435C20.6067 203.217 20.465 202.677 20.6983 202.293C20.9283 201.897 21.44 201.763 21.8383 201.993L23.4567 202.938C23.79 203.135 24.22 203.072 24.485 202.788C25.4 201.812 26.5667 201.142 27.8533 200.847C28.2333 200.76 28.5017 200.423 28.5017 200.035V198.168C28.5017 197.708 28.875 197.335 29.335 197.335C29.795 197.335 30.1683 197.708 30.1683 198.168V200.035C30.1683 200.423 30.4367 200.762 30.8167 200.847C32.105 201.142 33.27 201.812 34.185 202.788C34.4517 203.072 34.88 203.135 35.2133 202.938L36.83 201.993C37.225 201.763 37.7383 201.893 37.97 202.293C38.2033 202.677 38.0617 203.217 37.67 203.435L36.0383 204.387C35.7017 204.582 35.5467 204.983 35.6633 205.355C35.8933 206.088 36 206.718 36 207.335C36 207.952 35.8933 208.582 35.6633 209.315C35.5467 209.687 35.7017 210.088 36.0383 210.283L37.67 211.235C38.0617 211.453 38.2033 211.993 37.97 212.377ZM18.395 217.132C17.345 217.267 16.2583 217.335 15.1667 217.335C8.39167 217.335 2.66667 214.663 2.66667 211.502V206.75C5.03167 209.102 9.68833 210.668 15.1667 210.668C15.6267 210.668 16 210.295 16 209.835C16 209.375 15.6267 209.002 15.1667 209.002C8.39167 209.002 2.66667 206.33 2.66667 203.168V198.417C5.03167 200.768 9.68833 202.335 15.1667 202.335C15.6267 202.335 16 201.962 16 201.502C16 201.042 15.6267 200.668 15.1667 200.668C8.39167 200.668 2.66667 197.997 2.66667 194.835V190.083C5.03167 192.435 9.68833 194.002 15.1667 194.002C20.645 194.002 25.3017 192.435 27.6667 190.083V191.502C27.6667 191.962 28.04 192.335 28.5 192.335C28.96 192.335 29.3333 191.962 29.3333 191.502V186.502C29.3333 182.295 23.1117 179 15.1667 179C7.22167 179 1 182.295 1 186.5V211.5C1 215.705 7.22167 219 15.1667 219C16.3283 219 17.485 218.927 18.605 218.783C19.0617 218.725 19.385 218.307 19.3267 217.85C19.2683 217.393 18.8533 217.072 18.3933 217.128L18.395 217.132ZM15.1667 180.667C21.9417 180.667 27.6667 183.338 27.6667 186.5C27.6667 189.662 21.9417 192.333 15.1667 192.333C8.39167 192.333 2.66667 189.662 2.66667 186.5C2.66667 183.338 8.39167 180.667 15.1667 180.667Z" fill="#1AA9B9"/>
<g clip-path="url(#clip1_820_2835)">
<path d="M194.85 11.5L196.483 11.8333L193.15 28.5L191.516 28.1667L194.85 11.5ZM189.55 15.9333L188.366 14.75L184.716 18.4C183.75 19.3667 183.75 20.9333 184.716 21.9L188.316 25.5L189.5 24.3167L185.9 20.7167C185.583 20.4 185.583 19.8833 185.9 19.5667L189.55 15.9167V15.9333ZM199.666 14.6833L198.483 15.8667L202.116 19.5C202.433 19.8167 202.433 20.3333 202.116 20.65L198.483 24.2833L199.666 25.4667L203.3 21.8333C204.266 20.8667 204.266 19.3 203.3 18.3333L199.666 14.7V14.6833ZM208.65 23.1667L213.65 26.25L208.4 34.7667L203.4 31.6833C202.066 32.7667 200.6 33.5833 199 34.15V40H189V34.15C187.416 33.5833 185.933 32.7667 184.6 31.6833L179.6 34.7667L174.35 26.25L179.35 23.1667C179.116 22.1 179 21.0333 179 20C179 18.9667 179.116 17.9 179.35 16.8333L174.35 13.75L179.6 5.23333L184.6 8.31667C185.933 7.23333 187.4 6.41667 189 5.85V0H199V5.85C200.583 6.41667 202.066 7.23333 203.4 8.31667L208.4 5.23333L213.65 13.75L208.65 16.8333C208.883 17.9 209 18.9667 209 20C209 21.0333 208.883 22.1 208.65 23.1667ZM206.733 23.95L206.883 23.35C207.183 22.2167 207.333 21.1 207.333 20C207.333 18.9 207.183 17.7833 206.883 16.65L206.733 16.05L211.35 13.2L207.85 7.53333L203.233 10.3833L202.766 9.98333C201.333 8.73333 199.7 7.81667 197.916 7.26667L197.333 7.08333V1.66667H190.666V7.06667L190.083 7.25C188.3 7.8 186.666 8.71667 185.233 9.96667L184.766 10.3667L180.15 7.51667L176.65 13.2L181.266 16.05L181.116 16.65C180.816 17.7833 180.666 18.9 180.666 20C180.666 21.1 180.816 22.2167 181.116 23.35L181.266 23.95L176.65 26.8L180.15 32.4667L184.766 29.6167L185.233 30.0167C186.666 31.2667 188.3 32.1833 190.083 32.7333L190.666 32.9167V38.3167H197.333V32.9167L197.916 32.7333C199.7 32.1833 201.333 31.2667 202.766 30.0167L203.233 29.6167L207.85 32.4667L211.35 26.8L206.733 23.95Z" fill="#1AA9B9"/>
</g>
<g clip-path="url(#clip2_820_2835)">
<path d="M214.833 212.452V211.5C214.833 211.04 214.46 210.667 214 210.667C213.54 210.667 213.167 211.04 213.167 211.5V212.452C211.733 212.825 210.667 214.118 210.667 215.667C210.667 217.505 212.162 219 214 219C215.838 219 217.333 217.505 217.333 215.667C217.333 214.118 216.267 212.825 214.833 212.452ZM214 217.333C213.082 217.333 212.333 216.585 212.333 215.667C212.333 214.748 213.082 214 214 214C214.918 214 215.667 214.748 215.667 215.667C215.667 216.585 214.918 217.333 214 217.333ZM221.5 189.833C221.96 189.833 222.333 189.46 222.333 189V185.667C222.333 184.288 223.455 183.167 224.833 183.167H227.452C227.825 184.6 229.118 185.667 230.667 185.667C232.505 185.667 234 184.172 234 182.333C234 180.495 232.505 179 230.667 179C229.118 179 227.825 180.067 227.452 181.5H224.833C222.537 181.5 220.667 183.37 220.667 185.667V189C220.667 189.46 221.04 189.833 221.5 189.833ZM230.667 180.667C231.585 180.667 232.333 181.415 232.333 182.333C232.333 183.252 231.585 184 230.667 184C229.748 184 229 183.252 229 182.333C229 181.415 229.748 180.667 230.667 180.667ZM213.167 185.548V186.5C213.167 186.96 213.54 187.333 214 187.333C214.46 187.333 214.833 186.96 214.833 186.5V185.548C216.267 185.175 217.333 183.882 217.333 182.333C217.333 180.495 215.838 179 214 179C212.162 179 210.667 180.495 210.667 182.333C210.667 183.882 211.733 185.175 213.167 185.548ZM214 180.667C214.918 180.667 215.667 181.415 215.667 182.333C215.667 183.252 214.918 184 214 184C213.082 184 212.333 183.252 212.333 182.333C212.333 181.415 213.082 180.667 214 180.667ZM230.667 212.333C229.118 212.333 227.825 213.4 227.452 214.833H224.833C223.455 214.833 222.333 213.712 222.333 212.333V209C222.333 208.54 221.96 208.167 221.5 208.167C221.04 208.167 220.667 208.54 220.667 209V212.333C220.667 214.63 222.537 216.5 224.833 216.5H227.452C227.825 217.933 229.118 219 230.667 219C232.505 219 234 217.505 234 215.667C234 213.828 232.505 212.333 230.667 212.333ZM230.667 217.333C229.748 217.333 229 216.585 229 215.667C229 214.748 229.748 214 230.667 214C231.585 214 232.333 214.748 232.333 215.667C232.333 216.585 231.585 217.333 230.667 217.333ZM214 195.667C212.162 195.667 210.667 197.162 210.667 199C210.667 200.838 212.162 202.333 214 202.333C215.838 202.333 217.333 200.838 217.333 199C217.333 197.162 215.838 195.667 214 195.667ZM214 200.667C213.082 200.667 212.333 199.918 212.333 199C212.333 198.082 213.082 197.333 214 197.333C214.918 197.333 215.667 198.082 215.667 199C215.667 199.918 214.918 200.667 214 200.667ZM206.5 208.167C206.04 208.167 205.667 208.54 205.667 209V212.333C205.667 213.712 204.545 214.833 203.167 214.833H200.548C200.175 213.4 198.882 212.333 197.333 212.333C195.495 212.333 194 213.828 194 215.667C194 217.505 195.495 219 197.333 219C198.882 219 200.175 217.933 200.548 216.5H203.167C205.463 216.5 207.333 214.63 207.333 212.333V209C207.333 208.54 206.96 208.167 206.5 208.167ZM197.333 217.333C196.415 217.333 195.667 216.585 195.667 215.667C195.667 214.748 196.415 214 197.333 214C198.252 214 199 214.748 199 215.667C199 216.585 198.252 217.333 197.333 217.333ZM222.62 204.068C223.327 202.925 222.905 201.303 221.733 200.647L221.343 200.418C221.45 199.92 221.5 199.458 221.5 199.002C221.5 198.545 221.45 198.085 221.343 197.585L221.733 197.357C222.905 196.7 223.328 195.078 222.62 193.935C221.965 192.762 220.343 192.343 219.198 193.047L218.827 193.265C218.147 192.698 217.358 192.255 216.5 191.955V191.503C216.5 190.125 215.378 189.003 214 189.003C212.622 189.003 211.5 190.125 211.5 191.503V191.955C210.642 192.255 209.853 192.698 209.173 193.265L208.802 193.047C207.657 192.343 206.037 192.762 205.38 193.935C204.673 195.078 205.095 196.7 206.267 197.357L206.657 197.585C206.55 198.083 206.5 198.545 206.5 199.002C206.5 199.458 206.55 199.918 206.657 200.418L206.267 200.647C205.095 201.303 204.673 202.925 205.378 204.068C206.077 205.257 207.61 205.655 208.8 204.957L209.172 204.738C209.852 205.305 210.64 205.748 211.498 206.048V206.5C211.498 207.878 212.62 209 213.998 209C215.377 209 216.498 207.878 216.498 206.5V206.048C217.357 205.748 218.145 205.305 218.825 204.738L219.197 204.957C220.387 205.655 221.922 205.258 222.618 204.068H222.62ZM221.183 203.223C220.965 203.613 220.423 203.758 220.043 203.52L219.142 202.99C218.815 202.797 218.397 202.852 218.13 203.12C217.415 203.837 216.492 204.357 215.458 204.625C215.09 204.72 214.833 205.052 214.833 205.432V206.502C214.833 206.962 214.46 207.335 214 207.335C213.54 207.335 213.167 206.962 213.167 206.502V205.432C213.167 205.052 212.91 204.72 212.542 204.625C211.51 204.357 210.587 203.837 209.87 203.12C209.71 202.958 209.495 202.875 209.28 202.875C209.135 202.875 208.99 202.912 208.858 202.99L207.957 203.52C207.577 203.757 207.035 203.615 206.815 203.223C206.58 202.843 206.72 202.302 207.112 202.083L208.038 201.538C208.365 201.347 208.522 200.957 208.418 200.592C208.247 199.99 208.167 199.485 208.167 199C208.167 198.515 208.247 198.01 208.418 197.408C208.522 197.043 208.367 196.653 208.038 196.462L207.112 195.917C206.72 195.698 206.582 195.158 206.817 194.775C207.037 194.385 207.573 194.243 207.957 194.48L208.858 195.01C209.185 195.202 209.602 195.148 209.87 194.88C210.587 194.163 211.51 193.642 212.542 193.375C212.91 193.28 213.167 192.948 213.167 192.568V191.498C213.167 191.038 213.54 190.665 214 190.665C214.46 190.665 214.833 191.038 214.833 191.498V192.568C214.833 192.948 215.09 193.28 215.458 193.375C216.49 193.642 217.413 194.163 218.13 194.88C218.4 195.15 218.815 195.202 219.142 195.01L220.043 194.48C220.423 194.243 220.965 194.385 221.183 194.775C221.418 195.155 221.28 195.698 220.888 195.917L219.962 196.462C219.635 196.653 219.478 197.043 219.582 197.408C219.753 198.01 219.833 198.515 219.833 199C219.833 199.485 219.753 199.99 219.582 200.592C219.478 200.957 219.633 201.347 219.962 201.538L220.888 202.083C221.28 202.302 221.42 202.842 221.183 203.223ZM197.333 185.667C198.882 185.667 200.175 184.6 200.548 183.167H203.167C204.545 183.167 205.667 184.288 205.667 185.667V189C205.667 189.46 206.04 189.833 206.5 189.833C206.96 189.833 207.333 189.46 207.333 189V185.667C207.333 183.37 205.463 181.5 203.167 181.5H200.548C200.175 180.067 198.882 179 197.333 179C195.495 179 194 180.495 194 182.333C194 184.172 195.495 185.667 197.333 185.667ZM197.333 180.667C198.252 180.667 199 181.415 199 182.333C199 183.252 198.252 184 197.333 184C196.415 184 195.667 183.252 195.667 182.333C195.667 181.415 196.415 180.667 197.333 180.667Z" fill="#1AA9B9"/>
</g>
<g clip-path="url(#clip3_820_2835)">
<path d="M14.1667 30.1667V22.5817C11.8067 22.1817 10.0001 20.1384 10.0001 17.6667H11.6667C11.6667 19.505 13.1617 21 15.0001 21C16.8384 21 18.3334 19.505 18.3334 17.6667H20.0001C20.0001 20.1384 18.1934 22.1834 15.8334 22.5817V26.8334L14.1667 30.1667ZM10.0001 44.3334V39.9634C10.0001 39.19 9.91341 38.4234 9.76674 37.6667H13.7184C13.5951 37.1217 13.4951 36.5667 13.4317 36H9.32508C8.64674 34.025 7.48008 32.1984 5.89508 30.7184C2.68008 27.7167 1.18841 23.4734 1.80174 19.0784C2.62174 13.1984 7.50674 8.4367 13.4184 7.75836C17.2867 7.3167 20.9967 8.4817 23.8717 11.045C26.2901 13.2017 27.8184 16.16 28.2201 19.34C28.2584 19.34 28.2967 19.335 28.3351 19.335C28.8701 19.335 29.3967 19.365 29.9167 19.42C29.5251 15.735 27.7751 12.295 24.9801 9.8017C21.7917 6.95836 17.5067 5.6117 13.2267 6.10336C6.57341 6.8667 1.07508 12.225 0.150076 18.8467C-0.539924 23.7867 1.14008 28.5584 4.75674 31.935C7.03008 34.0567 8.33341 36.9834 8.33341 39.9617V45.9984H18.9151C18.2884 45.4917 17.7134 44.93 17.1751 44.3317L10.0001 44.3334ZM19.5184 42.375L22.7451 40.49C23.6401 41.305 24.6901 41.91 25.8334 42.27V46H30.8334V42.27C31.9784 41.9084 33.0267 41.3034 33.9217 40.49L37.1484 42.375L39.6701 38.0567L36.4351 36.1667C36.5917 35.525 36.6684 34.9217 36.6684 34.3334C36.6684 33.745 36.5917 33.14 36.4351 32.4984L39.6701 30.61L37.1484 26.2917L33.9217 28.175C33.0267 27.3617 31.9767 26.7567 30.8334 26.395V22.665H25.8334V26.395C24.6884 26.7567 23.6401 27.3617 22.7451 28.175L19.5184 26.2917L16.9967 30.61L20.2317 32.4984C20.0751 33.14 19.9984 33.745 19.9984 34.3334C19.9984 34.9217 20.0751 35.525 20.2317 36.1667L16.9967 38.0567L19.5184 42.375ZM22.1934 36.9334C21.8551 36.135 21.6667 35.255 21.6667 34.3334C21.6667 33.4234 21.8517 32.5584 22.1817 31.7684L19.2784 30.01L20.1184 28.5717L23.0817 30.2717C24.1384 28.9067 25.7034 27.9767 27.5017 27.75V24.3334H29.1684V27.75C30.9801 27.9784 32.5534 28.9184 33.6117 30.3L36.5517 28.5717L37.3917 30.01L34.4717 31.725C34.8117 32.525 35.0017 33.4067 35.0017 34.3317C35.0017 35.2734 34.8017 36.1667 34.4484 36.98L37.3901 38.6534L36.5501 40.0917L33.5784 38.4017C32.5217 39.7617 30.9617 40.6867 29.1667 40.9134V44.33H27.5001V40.9134C25.6867 40.685 24.1101 39.7417 23.0534 38.3584L20.1167 40.0917L19.2767 38.6534L22.1934 36.9334ZM28.3334 31C26.4951 31 25.0001 32.495 25.0001 34.3334C25.0001 36.1717 26.4951 37.6667 28.3334 37.6667C30.1717 37.6667 31.6667 36.1717 31.6667 34.3334C31.6667 32.495 30.1717 31 28.3334 31ZM28.3334 36C27.4151 36 26.6667 35.2517 26.6667 34.3334C26.6667 33.415 27.4151 32.6667 28.3334 32.6667C29.2517 32.6667 30.0001 33.415 30.0001 34.3334C30.0001 35.2517 29.2517 36 28.3334 36Z" fill="#1AA9B9"/>
</g>
<defs>
<clipPath id="clip0_820_2835">
<rect width="48" height="48" fill="white" transform="translate(91 98)"/>
</clipPath>
<clipPath id="clip1_820_2835">
<rect width="40" height="40" fill="white" transform="translate(174)"/>
</clipPath>
<clipPath id="clip2_820_2835">
<rect width="40" height="40" fill="white" transform="translate(194 179)"/>
</clipPath>
<clipPath id="clip3_820_2835">
<rect width="40" height="40" fill="white" transform="translate(0 6)"/>
</clipPath>
</defs>
</svg>
