<svg width="174" height="171" viewBox="0 0 174 171" fill="none" xmlns="http://www.w3.org/2000/svg">
<g clip-path="url(#clip0_813_2825)">
<path d="M83.5779 89.1505L84.5147 92.1913H82.6203L83.5779 89.1505ZM101.332 100.532C100.474 101.913 98.7106 102.576 96.3761 102.576C95.7308 102.576 95.0275 102.506 94.3003 102.407C94.4446 101.952 94.5799 101.486 94.7048 101.004C97.4096 101.351 99.35 100.905 100.068 99.748C101.389 97.6202 98.7538 92.8723 92.8565 88.2285C92.9041 89.0404 92.9472 89.8568 92.9472 90.7058C92.9472 100.712 89.6818 108.549 85.5124 108.549C83.6968 108.549 82.0523 107.059 80.7735 104.554C81.2478 104.417 81.7326 104.252 82.2173 104.088C83.221 105.981 84.3913 107.062 85.5124 107.062C87.7399 107.062 90.1636 102.839 91.0781 96.2983C90.6008 96.6313 90.1101 96.9599 89.5956 97.2811C85.4633 99.8491 81.1735 101.635 77.5185 102.312C76.4717 102.505 75.5052 102.6 74.6294 102.6C72.2547 102.6 70.5432 101.897 69.6957 100.536C69.6957 100.536 69.6942 100.536 69.6927 100.533C68.5507 98.6937 69.2615 95.9786 71.3625 93.0344C71.6971 93.3868 72.0451 93.7377 72.4094 94.0871C70.741 96.4841 70.2057 98.5406 70.9551 99.748C71.7581 101.037 74.0465 101.44 77.2464 100.848C79.2806 100.472 81.5318 99.7197 83.8455 98.6714C83.0426 98.2387 82.2367 97.7822 81.4263 97.2796C72.564 91.7705 67.4087 84.5691 69.6927 80.8815C69.6927 80.8815 69.6927 80.8785 69.6942 80.877C70.7871 79.115 73.3625 78.5336 76.7111 78.9945C76.5684 79.451 76.436 79.9194 76.3111 80.4042C73.6123 80.0592 71.6763 80.5053 70.9581 81.6607C69.6362 83.79 72.2755 88.5453 78.1832 93.1935C78.1371 92.3727 78.0643 91.5608 78.0643 90.7043C78.0643 80.7001 81.3445 72.8623 85.5124 72.8608C87.3265 72.8608 88.9696 74.3478 90.2469 76.8489C89.7711 76.9871 89.2893 77.1403 88.8001 77.3083C87.7979 75.4244 86.6306 74.3493 85.5124 74.3493C83.2835 74.3493 80.8582 78.5767 79.9453 85.1238C80.4359 84.7922 80.9103 84.4532 81.4277 84.132C90.2945 78.6228 99.0393 77.1923 101.332 80.8785C102.476 82.7179 101.762 85.4345 99.6608 88.3787C99.3262 88.0263 98.9798 87.6754 98.6155 87.3245C100.284 84.926 100.819 82.871 100.07 81.6636C98.788 79.6012 93.6446 79.7767 87.1496 82.7387C87.9614 83.1699 88.7763 83.6205 89.5986 84.132C98.4698 89.6426 103.624 96.8469 101.334 100.533L101.332 100.532ZM86.986 95.1652L84.2396 86.2435H82.934L80.1267 95.1652H81.6865L82.1549 93.6782H84.9741L85.4321 95.1652H86.9875H86.986ZM89.9599 86.2435H88.4729V95.1652H89.9599V86.2435Z" fill="#7C67FF"/>
</g>
<path d="M152.26 106.676C149.267 101.461 145.811 96.1084 141.942 90.713C145.811 85.3091 149.267 79.9651 152.26 74.7499C160.846 59.7218 165.752 45.8518 165.794 34.3749C165.794 30.9095 165.331 27.6499 164.302 24.6649C163.273 21.6799 161.66 18.9779 159.439 16.7649C157.226 14.5518 154.524 12.9305 151.54 11.9012C148.555 10.8719 145.296 10.4087 141.831 10.4087C130.364 10.443 116.487 15.358 101.46 23.9443C96.2455 26.9379 90.8935 30.3947 85.4987 34.2633C80.0954 30.3947 74.7521 26.9379 69.5374 23.9443C54.5109 15.358 40.6423 10.4516 29.1666 10.4087C25.7016 10.4087 22.4424 10.8719 19.4577 11.9012C16.473 12.9305 13.7713 14.5433 11.5585 16.7649C9.34573 18.9694 7.72479 21.6799 6.69558 24.6563C5.66637 27.6413 5.20312 30.9009 5.20312 34.3663C5.23743 45.8347 10.1519 59.7132 18.7373 74.7413C21.7306 79.9565 25.187 85.3091 29.0551 90.7044C25.187 96.1084 21.7306 101.452 18.7373 106.667C10.1519 121.695 5.24601 135.574 5.20312 147.043C5.20312 150.508 5.66637 153.768 6.69558 156.753C7.72479 159.738 9.33715 162.44 11.5585 164.653C13.7713 166.866 16.473 168.487 19.4577 169.507C22.4424 170.537 25.7016 171 29.1666 171C40.6338 170.966 54.5109 166.051 69.5374 157.465C74.7521 154.471 80.1039 151.014 85.4987 147.146C90.8935 151.014 96.2455 154.471 101.46 157.465C116.487 166.051 130.355 170.957 141.831 171C145.296 171 148.555 170.537 151.54 169.507C154.524 168.478 157.226 166.866 159.439 164.653C161.652 162.44 163.273 159.738 164.294 156.753C165.323 153.768 165.786 150.508 165.786 147.043C165.752 135.574 160.837 121.695 152.252 106.667L152.26 106.676ZM105.268 30.5748C119.557 22.3488 132.611 18.0172 141.831 18.0515C144.61 18.0515 147.028 18.429 149.044 19.1237C151.068 19.8271 152.689 20.8307 154.036 22.1603C155.374 23.4984 156.377 25.128 157.072 27.1523C157.767 29.1681 158.144 31.5871 158.144 34.3663C158.178 43.5959 153.847 56.651 145.622 70.9329C143.135 75.2732 140.296 79.725 137.139 84.254C130.93 76.2167 123.837 68.1366 115.946 60.2451C108.056 52.3622 99.9763 45.2599 91.9399 39.0497C96.4598 35.8931 100.92 33.0538 105.26 30.5662L105.268 30.5748ZM132.456 90.7044C126.144 99.0505 118.794 107.508 110.552 115.751C102.309 123.994 93.8439 131.345 85.5073 137.659C77.1621 131.345 68.7055 123.994 60.4632 115.751C52.221 107.508 44.8706 99.042 38.5581 90.7044C44.8706 82.3669 52.221 73.9008 60.4632 65.6577C68.7055 57.4145 77.1707 50.0634 85.5073 43.7502C93.8439 50.0634 102.309 57.4145 110.552 65.6577C118.794 73.9008 126.144 82.3669 132.456 90.7044ZM25.3757 70.9329C17.1506 56.6424 12.8193 43.5873 12.8536 34.3663C12.8536 31.5871 13.231 29.1681 13.9257 27.1523C14.629 25.128 15.6325 23.507 16.9619 22.1689C18.3085 20.8307 19.9294 19.8271 21.9536 19.1237C23.9691 18.429 26.3878 18.0515 29.1666 18.0515C38.3952 18.0172 51.4491 22.3488 65.7294 30.5748C70.0692 33.0624 74.5291 35.9017 79.0491 39.0583C71.0127 45.2685 62.9334 52.3622 55.0428 60.2537C47.1607 68.1452 40.0591 76.2253 33.8495 84.2626C30.6933 79.7422 27.8544 75.2817 25.3671 70.9414L25.3757 70.9329ZM65.7379 150.834C51.4491 159.06 38.3952 163.392 29.1752 163.357C26.3964 163.357 23.9777 162.98 21.9621 162.285C19.938 161.582 18.3171 160.578 16.9705 159.249C15.6325 157.911 14.629 156.281 13.9343 154.257C13.2396 152.241 12.8536 149.822 12.8622 147.043C12.8279 137.813 17.1591 124.758 25.3843 110.476C27.8715 106.136 30.7104 101.675 33.8667 97.1549C40.0763 105.192 47.1692 113.272 55.0598 121.164C62.9504 129.047 71.0297 136.149 79.0662 142.359C74.5462 145.516 70.0864 148.355 65.7465 150.842L65.7379 150.834ZM157.072 154.248C156.369 156.272 155.374 157.893 154.036 159.24C152.698 160.578 151.068 161.573 149.044 162.277C147.028 162.98 144.61 163.349 141.831 163.349C132.602 163.383 119.549 159.051 105.268 150.825C100.928 148.338 96.477 145.499 91.957 142.342C99.9935 136.132 108.073 129.038 115.963 121.147C123.845 113.255 130.947 105.175 137.157 97.1377C140.313 101.658 143.152 106.119 145.639 110.459C153.864 124.749 158.195 137.804 158.161 147.025C158.161 149.805 157.784 152.224 157.089 154.239L157.072 154.248Z" fill="#EFE2FF" fill-opacity="0.3"/>
<g clip-path="url(#clip1_813_2825)">
<path d="M21.8074 159.587C20.4406 159.587 19.3291 160.698 19.3291 162.065C19.3291 163.432 20.4406 164.543 21.8074 164.543C23.1742 164.543 24.2857 163.432 24.2857 162.065C24.2857 160.698 23.1742 159.587 21.8074 159.587ZM21.8074 163.304C21.1246 163.304 20.5683 162.749 20.5683 162.065C20.5683 161.381 21.1246 160.826 21.8074 160.826C22.4902 160.826 23.0465 161.381 23.0465 162.065C23.0465 162.749 22.4902 163.304 21.8074 163.304ZM28.6301 163.897L27.8296 163.429C27.9461 162.951 28.0031 162.503 28.0031 162.065C28.0031 161.628 27.9461 161.179 27.8296 160.701L28.6301 160.234C29.0588 159.983 29.3649 159.582 29.4913 159.101C29.6176 158.62 29.5483 158.12 29.2979 157.691C28.7812 156.806 27.6412 156.505 26.7553 157.023L25.9622 157.487C25.2968 156.882 24.5161 156.432 23.6661 156.163V155.249C23.6661 154.224 22.8322 153.39 21.8074 153.39C20.7826 153.39 19.9487 154.224 19.9487 155.249V156.163C19.0974 156.432 18.318 156.882 17.6526 157.487L16.8583 157.023C15.9711 156.506 14.8323 156.806 14.3169 157.691C14.0666 158.12 13.9984 158.62 14.1236 159.101C14.2499 159.582 14.556 159.983 14.9848 160.234L15.7852 160.701C15.6688 161.179 15.6118 161.628 15.6118 162.065C15.6118 162.503 15.6688 162.951 15.7852 163.429L14.9848 163.897C14.556 164.147 14.2499 164.548 14.1236 165.029C13.9972 165.51 14.0666 166.011 14.3169 166.439C14.8323 167.325 15.9723 167.625 16.8596 167.107L17.6526 166.644C18.318 167.248 19.0987 167.7 19.9487 167.966V168.88C19.9487 169.905 20.7826 170.739 21.8074 170.739C22.8322 170.739 23.6661 169.905 23.6661 168.88V167.966C24.5161 167.698 25.2968 167.248 25.9622 166.644L26.7565 167.107C27.6425 167.625 28.7825 167.324 29.2979 166.439C29.5483 166.011 29.6164 165.51 29.4913 165.029C29.3649 164.548 29.0588 164.147 28.6301 163.897ZM28.2286 165.815C28.0551 166.108 27.6747 166.208 27.381 166.038L26.1778 165.335C25.9288 165.19 25.6103 165.236 25.4133 165.447C24.7318 166.173 23.8656 166.672 22.909 166.89C22.6265 166.955 22.427 167.205 22.427 167.494V168.882C22.427 169.222 22.1494 169.501 21.8074 169.501C21.4654 169.501 21.1878 169.222 21.1878 168.882V167.494C21.1878 167.205 20.9871 166.954 20.7058 166.89C19.7492 166.672 18.8831 166.173 18.2015 165.447C18.0813 165.318 17.9165 165.251 17.7493 165.251C17.6427 165.251 17.5336 165.278 17.437 165.335L16.235 166.038C15.9401 166.209 15.5597 166.111 15.3875 165.815C15.214 165.53 15.3193 165.128 15.6105 164.966L16.8236 164.258C17.0739 164.113 17.1892 163.815 17.1024 163.539C16.9314 162.993 16.8521 162.525 16.8521 162.066C16.8521 161.608 16.9314 161.14 17.1024 160.594C17.1892 160.318 17.0739 160.019 16.8236 159.874L15.6105 159.167C15.3193 159.005 15.214 158.603 15.3875 158.318C15.5585 158.023 15.9389 157.924 16.235 158.095L17.4382 158.798C17.6861 158.944 18.0058 158.897 18.2028 158.686C18.8831 157.96 19.7504 157.462 20.7071 157.243C20.9896 157.178 21.1891 156.928 21.1891 156.639V155.251C21.1891 154.909 21.4666 154.632 21.8086 154.632C22.1506 154.632 22.4282 154.909 22.4282 155.251V156.639C22.4282 156.928 22.6277 157.179 22.9102 157.243C23.8681 157.462 24.7342 157.96 25.4145 158.686C25.6128 158.897 25.9312 158.944 26.1791 158.798L27.381 158.095C27.6747 157.924 28.0563 158.021 28.2286 158.318C28.4021 158.603 28.2967 159.005 28.0055 159.167L26.7924 159.874C26.5421 160.019 26.4269 160.318 26.5136 160.594C26.6846 161.14 26.7639 161.608 26.7639 162.066C26.7639 162.525 26.6846 162.993 26.5136 163.539C26.4269 163.815 26.5421 164.113 26.7924 164.258L28.0055 164.966C28.2967 165.128 28.4021 165.53 28.2286 165.815ZM13.675 169.35C12.8943 169.45 12.0864 169.501 11.2748 169.501C6.23773 169.501 1.98132 167.515 1.98132 165.164V161.632C3.73964 163.38 7.20177 164.545 11.2748 164.545C11.6168 164.545 11.8944 164.267 11.8944 163.925C11.8944 163.583 11.6168 163.306 11.2748 163.306C6.23773 163.306 1.98132 161.319 1.98132 158.969V155.436C3.73964 157.184 7.20177 158.349 11.2748 158.349C11.6168 158.349 11.8944 158.071 11.8944 157.729C11.8944 157.387 11.6168 157.11 11.2748 157.11C6.23773 157.11 1.98132 155.124 1.98132 152.773V149.24C3.73964 150.989 7.20177 152.153 11.2748 152.153C15.3478 152.153 18.8099 150.989 20.5683 149.24V150.295C20.5683 150.637 20.8458 150.914 21.1878 150.914C21.5298 150.914 21.8074 150.637 21.8074 150.295V146.577C21.8074 143.45 17.1817 141 11.2748 141C5.36786 141 0.742188 143.45 0.742188 146.576V165.163C0.742188 168.289 5.36786 170.739 11.2748 170.739C12.1385 170.739 12.9984 170.685 13.8311 170.578C14.1706 170.535 14.411 170.224 14.3677 169.884C14.3243 169.545 14.0158 169.305 13.6738 169.348L13.675 169.35ZM11.2748 142.239C16.3119 142.239 20.5683 144.225 20.5683 146.576C20.5683 148.927 16.3119 150.913 11.2748 150.913C6.23773 150.913 1.98132 148.927 1.98132 146.576C1.98132 144.225 6.23773 142.239 11.2748 142.239Z" fill="#7C67FF"/>
</g>
<g clip-path="url(#clip2_813_2825)">
<path d="M151.501 8.55L152.715 8.79783L150.237 21.1891L149.023 20.9413L151.501 8.55ZM147.561 11.8461L146.681 10.9663L143.967 13.68C143.248 14.3987 143.248 15.5635 143.967 16.2822L146.644 18.9587L147.523 18.0789L144.847 15.4024C144.612 15.167 144.612 14.7828 144.847 14.5474L147.561 11.8337V11.8461ZM155.082 10.9167L154.202 11.7965L156.904 14.4978C157.139 14.7333 157.139 15.1174 156.904 15.3528L154.202 18.0541L155.082 18.9339L157.783 16.2326C158.502 15.5139 158.502 14.3491 157.783 13.6304L155.082 10.9291V10.9167ZM161.761 17.2239L165.478 19.5163L161.575 25.8483L157.858 23.5559C156.867 24.3613 155.776 24.9685 154.587 25.3898V29.7391H147.152V25.3898C145.975 24.9685 144.872 24.3613 143.88 23.5559L140.163 25.8483L136.26 19.5163L139.977 17.2239C139.804 16.4309 139.717 15.6378 139.717 14.8696C139.717 14.1013 139.804 13.3083 139.977 12.5152L136.26 10.2228L140.163 3.89087L143.88 6.18326C144.872 5.37783 145.962 4.77065 147.152 4.34935V0H154.587V4.34935C155.764 4.77065 156.867 5.37783 157.858 6.18326L161.575 3.89087L165.478 10.2228L161.761 12.5152C161.935 13.3083 162.021 14.1013 162.021 14.8696C162.021 15.6378 161.935 16.4309 161.761 17.2239ZM160.336 17.8063L160.448 17.3602C160.671 16.5176 160.782 15.6874 160.782 14.8696C160.782 14.0517 160.671 13.2215 160.448 12.3789L160.336 11.9328L163.768 9.81391L161.166 5.60087L157.734 7.71978L157.387 7.42239C156.321 6.49304 155.107 5.81152 153.781 5.40261L153.347 5.2663V1.23913H148.391V5.25391L147.957 5.39022C146.631 5.79913 145.417 6.48065 144.351 7.41L144.004 7.70739L140.572 5.58848L137.97 9.81391L141.402 11.9328L141.291 12.3789C141.068 13.2215 140.956 14.0517 140.956 14.8696C140.956 15.6874 141.068 16.5176 141.291 17.3602L141.402 17.8063L137.97 19.9252L140.572 24.1383L144.004 22.0193L144.351 22.3167C145.417 23.2461 146.631 23.9276 147.957 24.3365L148.391 24.4728V28.4876H153.347V24.4728L153.781 24.3365C155.107 23.9276 156.321 23.2461 157.387 22.3167L157.734 22.0193L161.166 24.1383L163.768 19.9252L160.336 17.8063Z" fill="#7C67FF"/>
</g>
<g clip-path="url(#clip3_813_2825)">
<path d="M151.489 165.871V165.163C151.489 164.821 151.212 164.543 150.87 164.543C150.528 164.543 150.25 164.821 150.25 165.163V165.871C149.184 166.148 148.391 167.11 148.391 168.261C148.391 169.628 149.503 170.739 150.87 170.739C152.236 170.739 153.348 169.628 153.348 168.261C153.348 167.11 152.555 166.148 151.489 165.871ZM150.87 169.5C150.187 169.5 149.63 168.944 149.63 168.261C149.63 167.578 150.187 167.022 150.87 167.022C151.552 167.022 152.109 167.578 152.109 168.261C152.109 168.944 151.552 169.5 150.87 169.5ZM156.446 149.054C156.788 149.054 157.065 148.777 157.065 148.435V145.957C157.065 144.932 157.899 144.098 158.924 144.098H160.871C161.148 145.163 162.11 145.957 163.261 145.957C164.628 145.957 165.739 144.845 165.739 143.478C165.739 142.111 164.628 141 163.261 141C162.11 141 161.148 141.793 160.871 142.859H158.924C157.216 142.859 155.826 144.249 155.826 145.957V148.435C155.826 148.777 156.104 149.054 156.446 149.054ZM163.261 142.239C163.944 142.239 164.5 142.795 164.5 143.478C164.5 144.161 163.944 144.717 163.261 144.717C162.578 144.717 162.022 144.161 162.022 143.478C162.022 142.795 162.578 142.239 163.261 142.239ZM150.25 145.869V146.576C150.25 146.918 150.528 147.196 150.87 147.196C151.212 147.196 151.489 146.918 151.489 146.576V145.869C152.555 145.591 153.348 144.629 153.348 143.478C153.348 142.111 152.236 141 150.87 141C149.503 141 148.391 142.111 148.391 143.478C148.391 144.629 149.184 145.591 150.25 145.869ZM150.87 142.239C151.552 142.239 152.109 142.795 152.109 143.478C152.109 144.161 151.552 144.717 150.87 144.717C150.187 144.717 149.63 144.161 149.63 143.478C149.63 142.795 150.187 142.239 150.87 142.239ZM163.261 165.783C162.11 165.783 161.148 166.576 160.871 167.641H158.924C157.899 167.641 157.065 166.807 157.065 165.783V163.304C157.065 162.962 156.788 162.685 156.446 162.685C156.104 162.685 155.826 162.962 155.826 163.304V165.783C155.826 167.49 157.216 168.88 158.924 168.88H160.871C161.148 169.946 162.11 170.739 163.261 170.739C164.628 170.739 165.739 169.628 165.739 168.261C165.739 166.894 164.628 165.783 163.261 165.783ZM163.261 169.5C162.578 169.5 162.022 168.944 162.022 168.261C162.022 167.578 162.578 167.022 163.261 167.022C163.944 167.022 164.5 167.578 164.5 168.261C164.5 168.944 163.944 169.5 163.261 169.5ZM150.87 153.391C149.503 153.391 148.391 154.503 148.391 155.87C148.391 157.236 149.503 158.348 150.87 158.348C152.236 158.348 153.348 157.236 153.348 155.87C153.348 154.503 152.236 153.391 150.87 153.391ZM150.87 157.109C150.187 157.109 149.63 156.552 149.63 155.87C149.63 155.187 150.187 154.63 150.87 154.63C151.552 154.63 152.109 155.187 152.109 155.87C152.109 156.552 151.552 157.109 150.87 157.109ZM145.293 162.685C144.951 162.685 144.674 162.962 144.674 163.304V165.783C144.674 166.807 143.84 167.641 142.815 167.641H140.869C140.591 166.576 139.629 165.783 138.478 165.783C137.111 165.783 136 166.894 136 168.261C136 169.628 137.111 170.739 138.478 170.739C139.629 170.739 140.591 169.946 140.869 168.88H142.815C144.523 168.88 145.913 167.49 145.913 165.783V163.304C145.913 162.962 145.635 162.685 145.293 162.685ZM138.478 169.5C137.795 169.5 137.239 168.944 137.239 168.261C137.239 167.578 137.795 167.022 138.478 167.022C139.161 167.022 139.717 167.578 139.717 168.261C139.717 168.944 139.161 169.5 138.478 169.5ZM157.278 159.638C157.804 158.788 157.49 157.582 156.619 157.094L156.329 156.924C156.408 156.554 156.446 156.21 156.446 155.871C156.446 155.531 156.408 155.189 156.329 154.818L156.619 154.648C157.49 154.16 157.805 152.954 157.278 152.104C156.791 151.232 155.586 150.92 154.734 151.443L154.458 151.606C153.953 151.184 153.366 150.855 152.728 150.632V150.296C152.728 149.271 151.894 148.437 150.87 148.437C149.845 148.437 149.011 149.271 149.011 150.296V150.632C148.373 150.855 147.787 151.184 147.281 151.606L147.005 151.443C146.153 150.92 144.949 151.232 144.461 152.104C143.935 152.954 144.249 154.16 145.12 154.648L145.41 154.818C145.331 155.188 145.293 155.531 145.293 155.871C145.293 156.21 145.331 156.552 145.41 156.924L145.12 157.094C144.249 157.582 143.935 158.788 144.46 159.638C144.979 160.521 146.119 160.817 147.003 160.298L147.28 160.136C147.785 160.557 148.371 160.887 149.01 161.11V161.446C149.01 162.47 149.844 163.304 150.868 163.304C151.893 163.304 152.727 162.47 152.727 161.446V161.11C153.365 160.887 153.951 160.557 154.457 160.136L154.733 160.298C155.618 160.817 156.759 160.522 157.277 159.638H157.278ZM156.21 159.01C156.048 159.299 155.645 159.407 155.363 159.23L154.692 158.836C154.449 158.692 154.138 158.733 153.94 158.933C153.409 159.466 152.722 159.852 151.954 160.052C151.68 160.122 151.489 160.369 151.489 160.651V161.447C151.489 161.789 151.212 162.066 150.87 162.066C150.528 162.066 150.25 161.789 150.25 161.447V160.651C150.25 160.369 150.059 160.122 149.785 160.052C149.018 159.852 148.332 159.466 147.799 158.933C147.68 158.812 147.52 158.751 147.36 158.751C147.253 158.751 147.145 158.778 147.047 158.836L146.376 159.23C146.094 159.406 145.691 159.301 145.528 159.01C145.353 158.727 145.457 158.324 145.748 158.162L146.437 157.757C146.68 157.614 146.797 157.324 146.72 157.053C146.592 156.606 146.533 156.23 146.533 155.87C146.533 155.509 146.592 155.134 146.72 154.686C146.797 154.415 146.681 154.125 146.437 153.982L145.748 153.577C145.457 153.415 145.354 153.013 145.529 152.728C145.692 152.438 146.091 152.333 146.376 152.509L147.047 152.903C147.29 153.046 147.599 153.006 147.799 152.806C148.332 152.274 149.018 151.886 149.785 151.687C150.059 151.617 150.25 151.37 150.25 151.088V150.292C150.25 149.95 150.528 149.673 150.87 149.673C151.212 149.673 151.489 149.95 151.489 150.292V151.088C151.489 151.37 151.68 151.617 151.954 151.687C152.721 151.886 153.407 152.274 153.94 152.806C154.141 153.007 154.449 153.046 154.692 152.903L155.363 152.509C155.645 152.333 156.048 152.438 156.21 152.728C156.385 153.011 156.282 153.415 155.991 153.577L155.302 153.982C155.059 154.125 154.943 154.415 155.019 154.686C155.147 155.134 155.207 155.509 155.207 155.87C155.207 156.23 155.147 156.606 155.019 157.053C154.943 157.324 155.058 157.614 155.302 157.757L155.991 158.162C156.282 158.324 156.386 158.726 156.21 159.01ZM138.478 145.957C139.629 145.957 140.591 145.163 140.869 144.098H142.815C143.84 144.098 144.674 144.932 144.674 145.957V148.435C144.674 148.777 144.951 149.054 145.293 149.054C145.635 149.054 145.913 148.777 145.913 148.435V145.957C145.913 144.249 144.523 142.859 142.815 142.859H140.869C140.591 141.793 139.629 141 138.478 141C137.111 141 136 142.111 136 143.478C136 144.845 137.111 145.957 138.478 145.957ZM138.478 142.239C139.161 142.239 139.717 142.795 139.717 143.478C139.717 144.161 139.161 144.717 138.478 144.717C137.795 144.717 137.239 144.161 137.239 143.478C137.239 142.795 137.795 142.239 138.478 142.239Z" fill="#7C67FF"/>
</g>
<g clip-path="url(#clip4_813_2825)">
<path d="M15.5341 17.9674V12.3282C13.7795 12.0308 12.4363 10.5116 12.4363 8.67396H13.6754C13.6754 10.0407 14.7869 11.1522 16.1537 11.1522C17.5204 11.1522 18.6319 10.0407 18.6319 8.67396H19.8711C19.8711 10.5116 18.5279 12.032 16.7732 12.3282V15.4892L15.5341 17.9674ZM12.4363 28.5V25.251C12.4363 24.6761 12.3719 24.1061 12.2628 23.5435H15.2008C15.1091 23.1383 15.0347 22.7257 14.9877 22.3044H11.9344C11.4301 20.836 10.5627 19.4779 9.38431 18.3776C6.99403 16.1459 5.88501 12.9911 6.34101 9.7235C6.95066 5.35185 10.5826 1.81166 14.9777 1.30733C17.8538 0.97896 20.6121 1.84511 22.7496 3.75089C24.5476 5.35433 25.6838 7.55378 25.9825 9.91805C26.011 9.91805 26.0395 9.91433 26.068 9.91433C26.4657 9.91433 26.8573 9.93663 27.2439 9.97752C26.9527 7.23781 25.6516 4.68024 23.5736 2.8265C21.2031 0.712547 18.0173 -0.288671 14.8352 0.0768729C9.88864 0.644395 5.80075 4.6282 5.11303 9.55126C4.60003 13.224 5.84907 16.7717 8.53799 19.2822C10.2282 20.8596 11.1972 23.0355 11.1972 25.2498V29.7379H19.0644C18.5985 29.3612 18.171 28.9437 17.7707 28.4988L12.4363 28.5ZM19.513 27.0441L21.9119 25.6426C22.5773 26.2485 23.358 26.6983 24.208 26.966V29.7392H27.9254V26.966C28.7767 26.6971 29.5561 26.2473 30.2215 25.6426L32.6205 27.0441L34.4953 23.8335L32.0901 22.4283C32.2066 21.9512 32.2636 21.5027 32.2636 21.0653C32.2636 20.6278 32.2066 20.178 32.0901 19.701L34.4953 18.297L32.6205 15.0865L30.2215 16.4867C29.5561 15.882 28.7755 15.4322 27.9254 15.1633V12.3901H24.208V15.1633C23.3567 15.4322 22.5773 15.882 21.9119 16.4867L19.513 15.0865L17.6382 18.297L20.0433 19.701C19.9268 20.178 19.8698 20.6278 19.8698 21.0653C19.8698 21.5027 19.9268 21.9512 20.0433 22.4283L17.6382 23.8335L19.513 27.0441ZM21.5018 22.9983C21.2502 22.4048 21.1102 21.7505 21.1102 21.0653C21.1102 20.3887 21.2477 19.7456 21.4931 19.1582L19.3345 17.851L19.9591 16.7816L22.1622 18.0455C22.9478 17.0307 24.1114 16.3392 25.4484 16.1707V13.6305H26.6875V16.1707C28.0345 16.3405 29.2042 17.0393 29.9911 18.0666L32.1769 16.7816L32.8014 17.851L30.6304 19.126C30.8832 19.7208 31.0245 20.3763 31.0245 21.064C31.0245 21.7641 30.8758 22.4283 30.6131 23.033L32.8002 24.2771L32.1756 25.3465L29.9663 24.09C29.1807 25.1011 28.0208 25.7888 26.6863 25.9573V28.4976H25.4472V25.9573C24.099 25.7876 22.9268 25.0862 22.1412 24.0578L19.9578 25.3465L19.3333 24.2771L21.5018 22.9983ZM26.0667 18.587C24.7 18.587 23.5885 19.6985 23.5885 21.0653C23.5885 22.432 24.7 23.5435 26.0667 23.5435C27.4335 23.5435 28.545 22.432 28.545 21.0653C28.545 19.6985 27.4335 18.587 26.0667 18.587ZM26.0667 22.3044C25.384 22.3044 24.8276 21.748 24.8276 21.0653C24.8276 20.3825 25.384 19.8261 26.0667 19.8261C26.7495 19.8261 27.3059 20.3825 27.3059 21.0653C27.3059 21.748 26.7495 22.3044 26.0667 22.3044Z" fill="#7C67FF"/>
</g>
<defs>
<clipPath id="clip0_813_2825">
<rect width="35.687" height="35.687" fill="white" transform="translate(67.6562 72.8608)"/>
</clipPath>
<clipPath id="clip1_813_2825">
<rect width="29.7391" height="29.7391" fill="white" transform="translate(0 141)"/>
</clipPath>
<clipPath id="clip2_813_2825">
<rect width="29.7391" height="29.7391" fill="white" transform="translate(136)"/>
</clipPath>
<clipPath id="clip3_813_2825">
<rect width="29.7391" height="29.7391" fill="white" transform="translate(136 141)"/>
</clipPath>
<clipPath id="clip4_813_2825">
<rect width="29.7391" height="29.7391" fill="white" transform="translate(5)"/>
</clipPath>
</defs>
</svg>
