<svg width="1440" height="553" viewBox="0 0 1440 553" fill="none" xmlns="http://www.w3.org/2000/svg">
<path d="M1260 552L1080 552M1260 552L1260 500.344M1260 552L1440 552L1440 483.125M1080 552L1080 483.125M1080 552L900 552M1260 500.344L1215 500.344L1215 483.125M1260 500.344L1305 500.344L1305 483.125M1215 483.125L1080 483.125M1215 483.125L1215 465.906L1260 465.906M1080 483.125L1080 414.25M1080 483.125L945 483.125M1260 414.25L1080 414.25M1260 414.25L1260 465.906M1260 414.25L1440 414.25M1260 414.25L1260 362.594M1080 414.25L1080 345.375M1080 414.25L900 414.25M1260 465.906L1305 465.906L1305 483.125M1305 483.125L1440 483.125M1440 483.125L1440 414.25M1440 414.25L1440 345.375M1260 362.594L1215 362.594L1215 345.375M1260 362.594L1305 362.594L1305 345.375M1215 345.375L1080 345.375M1215 345.375L1215 328.156L1260 328.156M1080 345.375L1080 276.5M1080 345.375L945 345.375M1260 276.5L1080 276.5M1260 276.5L1260 328.156M1260 276.5L1440 276.5M1260 276.5L1260 224.844M1080 276.5L1080 207.625M1080 276.5L900 276.5M1260 328.156L1305 328.156L1305 345.375M1305 345.375L1440 345.375M1440 345.375L1440 276.5M1440 276.5L1440 207.625M1260 224.844L1215 224.844L1215 207.625M1260 224.844L1305 224.844L1305 207.625M1215 207.625L1080 207.625M1215 207.625L1215 190.406L1260 190.406M1080 207.625L1080 138.75M1080 207.625L945 207.625M1260 138.75L1080 138.75M1260 138.75L1260 190.406M1260 138.75L1440 138.75M1260 138.75L1260 87.0938M1080 138.75L1080 69.8751M1080 138.75L900 138.75M1260 190.406L1305 190.406L1305 207.625M1305 207.625L1440 207.625M1440 207.625L1440 138.75M1440 138.75L1440 69.8751M1260 87.0938L1215 87.0938L1215 69.8751M1260 87.0938L1305 87.0938L1305 69.8751M1215 69.8751L1080 69.8751M1215 69.8751L1215 52.6563L1260 52.6563M1080 69.8751L1080 1.00009M1080 69.8751L945 69.8751M1260 1.00011L1260 52.6563M1260 52.6563L1305 52.6563L1305 69.8751M1305 69.8751L1440 69.8751M1440 69.8751L1440 1.00012M900 552L720 552M900 552L900 500.344M720 552L720 483.125M720 552L540 552M900 500.344L855 500.344L855 483.125M900 500.344L945 500.344L945 483.125M855 483.125L720 483.125M855 483.125L855 465.906L900 465.906M720 483.125L720 414.25M720 483.125L585 483.125M900 414.25L720 414.25M900 414.25L900 465.906M900 414.25L900 362.594M720 414.25L720 345.375M720 414.25L540 414.25M900 465.906L945 465.906L945 483.125M900 362.594L855 362.594L855 345.375M900 362.594L945 362.594L945 345.375M855 345.375L720 345.375M855 345.375L855 328.156L900 328.156M720 345.375L720 276.5M720 345.375L585 345.375M900 276.5L720 276.5M900 276.5L900 328.156M900 276.5L900 224.844M720 276.5L720 207.625M720 276.5L540 276.5M900 328.156L945 328.156L945 345.375M900 224.844L855 224.844L855 207.625M900 224.844L945 224.844L945 207.625M855 207.625L720 207.625M855 207.625L855 190.406L900 190.406M720 207.625L720 138.75M720 207.625L585 207.625M900 138.75L720 138.75M900 138.75L900 190.406M900 138.75L900 87.0938M720 138.75L720 69.875M720 138.75L540 138.75M900 190.406L945 190.406L945 207.625M900 87.0938L855 87.0938L855 69.8751M900 87.0938L945 87.0938L945 69.8751M855 69.8751L720 69.875M855 69.8751L855 52.6563L900 52.6563M720 69.875L720 1.00006M720 69.875L585 69.875M900 1.00007L900 52.6563M900 52.6563L945 52.6563L945 69.8751M540 552L360 552M540 552L540 500.344M360 552L360 483.125M360 552L180 552M540 500.344L495 500.344L495 483.125M540 500.344L585 500.344L585 483.125M495 483.125L360 483.125M495 483.125L495 465.906L540 465.906M360 483.125L360 414.25M360 483.125L225 483.125M540 414.25L360 414.25M540 414.25L540 465.906M540 414.25L540 362.594M360 414.25L360 345.375M360 414.25L180 414.25M540 465.906L585 465.906L585 483.125M540 362.594L495 362.594L495 345.375M540 362.594L585 362.594L585 345.375M495 345.375L360 345.375M495 345.375L495 328.156L540 328.156M360 345.375L360 276.5M360 345.375L225 345.375M540 276.5L360 276.5M540 276.5L540 328.156M540 276.5L540 224.844M360 276.5L360 207.625M360 276.5L180 276.5M540 328.156L585 328.156L585 345.375M540 224.844L495 224.844L495 207.625M540 224.844L585 224.844L585 207.625M495 207.625L360 207.625M495 207.625L495 190.406L540 190.406M360 207.625L360 138.75M360 207.625L225 207.625M540 138.75L360 138.75M540 138.75L540 190.406M540 138.75L540 87.0938M360 138.75L360 69.875M360 138.75L180 138.75M540 190.406L585 190.406L585 207.625M540 87.0938L495 87.0938L495 69.875M540 87.0938L585 87.0938L585 69.875M495 69.875L360 69.875M495 69.875L495 52.6563L540 52.6563M360 69.875L360 1.00003M360 69.875L225 69.875M540 1.00004L540 52.6563M540 52.6563L585 52.6563L585 69.875M180 552L0 552M180 552L180 500.344M180 500.344L135 500.344L135 483.125M180 500.344L225 500.344L225 483.125M135 483.125L6.02124e-06 483.125M135 483.125L135 465.906L180 465.906M180 414.25L1.20425e-05 414.25M180 414.25L180 465.906M180 414.25L180 362.594M180 465.906L225 465.906L225 483.125M180 362.594L135 362.594L135 345.375M180 362.594L225 362.594L225 345.375M135 345.375L1.80637e-05 345.375M135 345.375L135 328.156L180 328.156M180 276.5L2.4085e-05 276.5M180 276.5L180 328.156M180 276.5L180 224.844M180 328.156L225 328.156L225 345.375M180 224.844L135 224.844L135 207.625M180 224.844L225 224.844L225 207.625M135 207.625L3.01062e-05 207.625M135 207.625L135 190.406L180 190.406M180 138.75L3.61275e-05 138.75M180 138.75L180 190.406M180 138.75L180 87.0937M180 190.406L225 190.406L225 207.625M180 87.0937L135 87.0937L135 69.875M180 87.0937L225 87.0937L225 69.875M135 69.875L4.21487e-05 69.875M135 69.875L135 52.6562L180 52.6563M180 1.00001L180 52.6563M180 52.6563L225 52.6563L225 69.875" stroke="#E7E7E7" stroke-opacity="0.2" stroke-width="2" stroke-linecap="round" stroke-linejoin="round"/>
</svg>
